<mxfile host="9317f59a-e116-4fa9-b9ff-62031236874d" modified="2020-07-30T12:48:40.585Z" agent="5.0 (Macintosh; Intel Mac OS X 10_15_5) AppleWebKit/537.36 (KHTML, like Gecko) Code/1.47.3 Chrome/78.0.3904.130 Electron/7.3.2 Safari/537.36" etag="e-LJx1sMFVgcQlN5Scuq" version="13.1.3">
    <diagram id="6hGFLwfOUW9BJ-s0fimq" name="Page-1">
        <mxGraphModel dx="1223" dy="907" grid="1" gridSize="10" guides="1" tooltips="1" connect="1" arrows="1" fold="1" page="1" pageScale="1" pageWidth="827" pageHeight="1169" math="0" shadow="0">
            <root>
                <mxCell id="0"/>
                <mxCell id="1" parent="0"/>
                <mxCell id="11" style="edgeStyle=orthogonalEdgeStyle;rounded=0;orthogonalLoop=1;jettySize=auto;html=1;entryX=0.5;entryY=0;entryDx=0;entryDy=0;endArrow=open;endFill=0;" edge="1" parent="1" source="2" target="3">
                    <mxGeometry relative="1" as="geometry"/>
                </mxCell>
                <mxCell id="2" value="Client Request" style="rounded=1;whiteSpace=wrap;html=1;fillColor=none;" vertex="1" parent="1">
                    <mxGeometry x="360" y="40" width="120" height="40" as="geometry"/>
                </mxCell>
                <mxCell id="10" value="" style="group;fillColor=#fafafa;" vertex="1" connectable="0" parent="1">
                    <mxGeometry x="40" y="120" width="760" height="80" as="geometry"/>
                </mxCell>
                <mxCell id="3" value="" style="rounded=1;whiteSpace=wrap;html=1;fillColor=none;arcSize=5;" vertex="1" parent="10">
                    <mxGeometry width="760" height="80" as="geometry"/>
                </mxCell>
                <mxCell id="4" value="API Layer" style="text;html=1;strokeColor=none;fillColor=none;align=center;verticalAlign=middle;whiteSpace=wrap;rounded=0;fontStyle=1" vertex="1" parent="10">
                    <mxGeometry x="320" y="10" width="120" height="20" as="geometry"/>
                </mxCell>
                <mxCell id="5" value="Routing Component" style="rounded=1;whiteSpace=wrap;html=1;fillColor=none;fontStyle=0" vertex="1" parent="10">
                    <mxGeometry x="10" y="40" width="140" height="30" as="geometry"/>
                </mxCell>
                <mxCell id="6" value="Routing Component" style="rounded=1;whiteSpace=wrap;html=1;fillColor=none;fontStyle=0" vertex="1" parent="10">
                    <mxGeometry x="160" y="40" width="140" height="30" as="geometry"/>
                </mxCell>
                <mxCell id="7" value="Routing Component" style="rounded=1;whiteSpace=wrap;html=1;fillColor=none;fontStyle=0" vertex="1" parent="10">
                    <mxGeometry x="310" y="40" width="140" height="30" as="geometry"/>
                </mxCell>
                <mxCell id="8" value="Routing Component" style="rounded=1;whiteSpace=wrap;html=1;fillColor=none;fontStyle=0" vertex="1" parent="10">
                    <mxGeometry x="460" y="40" width="140" height="30" as="geometry"/>
                </mxCell>
                <mxCell id="9" value="Routing Component" style="rounded=1;whiteSpace=wrap;html=1;fillColor=none;fontStyle=0" vertex="1" parent="10">
                    <mxGeometry x="610" y="40" width="140" height="30" as="geometry"/>
                </mxCell>
                <mxCell id="18" value="" style="group" vertex="1" connectable="0" parent="1">
                    <mxGeometry x="50" y="240" width="140" height="200" as="geometry"/>
                </mxCell>
                <mxCell id="12" value="" style="rounded=1;whiteSpace=wrap;html=1;fillColor=#fafafa;arcSize=5;" vertex="1" parent="18">
                    <mxGeometry width="140" height="200" as="geometry"/>
                </mxCell>
                <mxCell id="15" value="Service" style="rounded=1;whiteSpace=wrap;html=1;fillColor=#FFFFFF;" vertex="1" parent="18">
                    <mxGeometry x="10" y="10" width="120" height="60" as="geometry"/>
                </mxCell>
                <mxCell id="16" value="Data Store" style="shape=cylinder;whiteSpace=wrap;html=1;boundedLbl=1;backgroundOutline=1;fillColor=#FFFFFF;" vertex="1" parent="18">
                    <mxGeometry x="25" y="110" width="90" height="80" as="geometry"/>
                </mxCell>
                <mxCell id="17" value="" style="shape=flexArrow;endArrow=classic;html=1;" edge="1" parent="18">
                    <mxGeometry width="50" height="50" relative="1" as="geometry">
                        <mxPoint x="69.5" y="75" as="sourcePoint"/>
                        <mxPoint x="69.5" y="105" as="targetPoint"/>
                    </mxGeometry>
                </mxCell>
                <mxCell id="19" value="" style="group" vertex="1" connectable="0" parent="1">
                    <mxGeometry x="200" y="240" width="140" height="200" as="geometry"/>
                </mxCell>
                <mxCell id="20" value="" style="rounded=1;whiteSpace=wrap;html=1;fillColor=#fafafa;arcSize=5;" vertex="1" parent="19">
                    <mxGeometry width="140" height="200" as="geometry"/>
                </mxCell>
                <mxCell id="21" value="Service" style="rounded=1;whiteSpace=wrap;html=1;fillColor=#FFFFFF;" vertex="1" parent="19">
                    <mxGeometry x="10" y="10" width="120" height="60" as="geometry"/>
                </mxCell>
                <mxCell id="22" value="Data Store" style="shape=cylinder;whiteSpace=wrap;html=1;boundedLbl=1;backgroundOutline=1;fillColor=#FFFFFF;" vertex="1" parent="19">
                    <mxGeometry x="25" y="110" width="90" height="80" as="geometry"/>
                </mxCell>
                <mxCell id="23" value="" style="shape=flexArrow;endArrow=classic;html=1;" edge="1" parent="19">
                    <mxGeometry width="50" height="50" relative="1" as="geometry">
                        <mxPoint x="69.5" y="75" as="sourcePoint"/>
                        <mxPoint x="69.5" y="105" as="targetPoint"/>
                    </mxGeometry>
                </mxCell>
                <mxCell id="25" style="edgeStyle=orthogonalEdgeStyle;rounded=0;orthogonalLoop=1;jettySize=auto;html=1;entryX=0.5;entryY=0;entryDx=0;entryDy=0;endArrow=open;endFill=0;" edge="1" parent="1" source="5" target="12">
                    <mxGeometry relative="1" as="geometry"/>
                </mxCell>
                <mxCell id="26" style="edgeStyle=orthogonalEdgeStyle;rounded=0;orthogonalLoop=1;jettySize=auto;html=1;entryX=0.5;entryY=0;entryDx=0;entryDy=0;endArrow=open;endFill=0;" edge="1" parent="1" source="6" target="20">
                    <mxGeometry relative="1" as="geometry"/>
                </mxCell>
                <mxCell id="45" value="" style="group" vertex="1" connectable="0" parent="1">
                    <mxGeometry x="400" y="400" width="140" height="200" as="geometry"/>
                </mxCell>
                <mxCell id="33" value="" style="group" vertex="1" connectable="0" parent="45">
                    <mxGeometry width="140" height="200" as="geometry"/>
                </mxCell>
                <mxCell id="34" value="" style="rounded=1;whiteSpace=wrap;html=1;fillColor=#fafafa;arcSize=5;" vertex="1" parent="33">
                    <mxGeometry width="140" height="200" as="geometry"/>
                </mxCell>
                <mxCell id="35" value="Service" style="rounded=1;whiteSpace=wrap;html=1;fillColor=#FFFFFF;" vertex="1" parent="33">
                    <mxGeometry x="10" y="10" width="120" height="60" as="geometry"/>
                </mxCell>
                <mxCell id="36" value="Data Store" style="shape=cylinder;whiteSpace=wrap;html=1;boundedLbl=1;backgroundOutline=1;fillColor=#FFFFFF;" vertex="1" parent="33">
                    <mxGeometry x="25" y="110" width="90" height="80" as="geometry"/>
                </mxCell>
                <mxCell id="37" value="" style="shape=flexArrow;endArrow=classic;html=1;" edge="1" parent="33">
                    <mxGeometry width="50" height="50" relative="1" as="geometry">
                        <mxPoint x="69.5" y="75" as="sourcePoint"/>
                        <mxPoint x="69.5" y="105" as="targetPoint"/>
                    </mxGeometry>
                </mxCell>
                <mxCell id="57" style="edgeStyle=orthogonalEdgeStyle;rounded=0;orthogonalLoop=1;jettySize=auto;html=1;entryX=0.5;entryY=1;entryDx=0;entryDy=0;endArrow=open;endFill=0;exitX=1;exitY=0.5;exitDx=0;exitDy=0;exitPerimeter=0;" edge="1" parent="1" source="55" target="22">
                    <mxGeometry relative="1" as="geometry">
                        <Array as="points">
                            <mxPoint x="270" y="525"/>
                        </Array>
                    </mxGeometry>
                </mxCell>
                <mxCell id="55" value="Cross-Service&amp;nbsp;&amp;nbsp;&lt;br&gt;Data &lt;br&gt;Messaging" style="strokeWidth=1;html=1;shape=mxgraph.flowchart.direct_data;whiteSpace=wrap;fillColor=none;" vertex="1" parent="1">
                    <mxGeometry x="140" y="500" width="110" height="50" as="geometry"/>
                </mxCell>
                <mxCell id="56" style="edgeStyle=orthogonalEdgeStyle;rounded=0;orthogonalLoop=1;jettySize=auto;html=1;exitX=0.5;exitY=1;exitDx=0;exitDy=0;entryX=0;entryY=0.5;entryDx=0;entryDy=0;entryPerimeter=0;endArrow=open;endFill=0;" edge="1" parent="1" source="16" target="55">
                    <mxGeometry relative="1" as="geometry">
                        <Array as="points">
                            <mxPoint x="120" y="490"/>
                            <mxPoint x="120" y="490"/>
                        </Array>
                    </mxGeometry>
                </mxCell>
                <mxCell id="58" value="" style="group" vertex="1" connectable="0" parent="1">
                    <mxGeometry x="600" y="400" width="140" height="80" as="geometry"/>
                </mxCell>
                <mxCell id="28" value="" style="rounded=1;whiteSpace=wrap;html=1;fillColor=#fafafa;arcSize=5;" vertex="1" parent="58">
                    <mxGeometry width="140" height="80" as="geometry"/>
                </mxCell>
                <mxCell id="29" value="Service" style="rounded=1;whiteSpace=wrap;html=1;fillColor=#FFFFFF;" vertex="1" parent="58">
                    <mxGeometry x="10" y="10" width="120" height="60" as="geometry"/>
                </mxCell>
                <mxCell id="59" value="" style="group" vertex="1" connectable="0" parent="1">
                    <mxGeometry x="500" y="240" width="140" height="80" as="geometry"/>
                </mxCell>
                <mxCell id="39" value="" style="rounded=1;whiteSpace=wrap;html=1;fillColor=#fafafa;arcSize=5;" vertex="1" parent="59">
                    <mxGeometry width="140" height="80" as="geometry"/>
                </mxCell>
                <mxCell id="40" value="Mediator&lt;br&gt;Service" style="rounded=1;whiteSpace=wrap;html=1;fillColor=#FFFFFF;" vertex="1" parent="59">
                    <mxGeometry x="10" y="10" width="120" height="60" as="geometry"/>
                </mxCell>
                <mxCell id="60" style="edgeStyle=orthogonalEdgeStyle;rounded=0;orthogonalLoop=1;jettySize=auto;html=1;entryX=0;entryY=0.5;entryDx=0;entryDy=0;endArrow=open;endFill=0;" edge="1" parent="1" source="7" target="39">
                    <mxGeometry relative="1" as="geometry">
                        <Array as="points">
                            <mxPoint x="420" y="280"/>
                        </Array>
                    </mxGeometry>
                </mxCell>
                <mxCell id="61" style="edgeStyle=orthogonalEdgeStyle;rounded=0;orthogonalLoop=1;jettySize=auto;html=1;entryX=0.5;entryY=0;entryDx=0;entryDy=0;endArrow=open;endFill=0;" edge="1" parent="1" source="8" target="39">
                    <mxGeometry relative="1" as="geometry"/>
                </mxCell>
                <mxCell id="62" style="edgeStyle=orthogonalEdgeStyle;rounded=0;orthogonalLoop=1;jettySize=auto;html=1;entryX=1;entryY=0.5;entryDx=0;entryDy=0;endArrow=open;endFill=0;" edge="1" parent="1" source="9" target="39">
                    <mxGeometry relative="1" as="geometry">
                        <Array as="points">
                            <mxPoint x="730" y="280"/>
                        </Array>
                    </mxGeometry>
                </mxCell>
                <mxCell id="64" style="edgeStyle=orthogonalEdgeStyle;rounded=0;orthogonalLoop=1;jettySize=auto;html=1;exitX=0.5;exitY=1;exitDx=0;exitDy=0;entryX=0.5;entryY=0;entryDx=0;entryDy=0;endArrow=open;endFill=0;" edge="1" parent="1" source="39" target="34">
                    <mxGeometry relative="1" as="geometry"/>
                </mxCell>
                <mxCell id="65" style="edgeStyle=orthogonalEdgeStyle;rounded=0;orthogonalLoop=1;jettySize=auto;html=1;exitX=0.5;exitY=1;exitDx=0;exitDy=0;entryX=0.5;entryY=0;entryDx=0;entryDy=0;endArrow=open;endFill=0;" edge="1" parent="1" source="39" target="28">
                    <mxGeometry relative="1" as="geometry"/>
                </mxCell>
            </root>
        </mxGraphModel>
    </diagram>
</mxfile>